<?xml version="1.0" standalone="no"?>
<!DOCTYPE svg PUBLIC "-//W3C//DTD SVG 20010904//EN"
 "http://www.w3.org/TR/2001/REC-SVG-20010904/DTD/svg10.dtd">
<svg version="1.0" xmlns="http://www.w3.org/2000/svg"
 width="190.000000pt" height="190.000000pt" viewBox="0 0 190.000000 190.000000"
 preserveAspectRatio="xMidYMid meet">

<g transform="translate(0.000000,190.000000) scale(0.100000,-0.100000)"
fill="#000000" stroke="none">
<path d="M543 1698 c-40 -42 -53 -69 -53 -107 0 -25 6 -33 34 -45 19 -8 65
-38 104 -66 l70 -53 -29 -54 c-17 -33 -29 -70 -29 -93 0 -42 43 -134 98 -209
30 -41 32 -49 32 -128 0 -53 -8 -115 -21 -166 -29 -113 -49 -273 -49 -393 l0
-100 -35 -17 c-41 -19 -53 -41 -35 -62 15 -18 61 -18 150 -2 l65 12 22 105
c27 132 54 223 64 213 11 -13 129 -291 129 -306 0 -21 42 -56 75 -63 17 -3 42
-1 58 5 21 8 27 17 27 40 0 19 -7 34 -19 40 -14 8 -20 27 -25 90 -4 43 -17
129 -30 190 -15 77 -18 111 -10 111 20 0 42 34 48 76 6 33 16 47 57 80 57 45
109 119 109 156 0 42 -88 144 -185 215 l-30 22 31 1 c18 0 38 -8 49 -20 10
-11 34 -23 53 -26 31 -6 39 -3 64 25 28 31 37 74 18 86 -19 12 2 99 33 134 27
31 29 38 22 85 -8 64 -40 137 -71 167 l-25 23 -84 -17 c-46 -10 -91 -20 -99
-23 -12 -5 -17 4 -22 35 -20 124 -121 70 -111 -59 4 -49 2 -57 -20 -74 -24
-18 -25 -18 -47 3 -12 12 -29 21 -36 21 -8 0 -40 18 -71 40 -32 22 -64 40 -72
40 -9 0 -19 5 -22 10 -4 6 -25 23 -48 37 -23 14 -46 32 -50 39 -14 24 -52 15
-84 -18z m90 -73 c-10 -31 -9 -37 10 -50 20 -14 21 -15 3 -28 -29 -21 -12 -36
30 -27 28 7 43 4 71 -12 29 -18 36 -19 44 -7 5 8 9 20 9 27 0 7 5 10 10 7 6
-3 10 -15 10 -26 0 -11 3 -18 8 -16 4 3 8 -15 9 -40 2 -42 1 -44 -15 -30 -9 8
-33 19 -52 25 -19 5 -44 13 -55 17 -16 6 -18 5 -8 -5 6 -7 26 -16 45 -20 28
-7 29 -8 7 -9 -28 -1 -64 21 -64 39 0 7 -11 20 -25 28 l-25 16 20 -24 c21 -26
20 -25 -60 35 -27 20 -60 41 -72 46 -29 11 -29 22 2 75 35 60 54 69 84 39 22
-22 24 -28 14 -60z m447 18 c0 -37 -17 -45 -24 -10 -3 12 -7 31 -9 42 -3 14
-5 12 -6 -8 -1 -39 25 -96 61 -134 25 -26 35 -30 50 -22 24 13 12 32 -14 25
-14 -3 -27 3 -39 17 -27 32 -24 49 9 46 15 -1 34 1 42 4 8 3 44 12 80 21 60
14 66 14 83 -2 30 -27 58 -89 64 -143 5 -45 3 -53 -23 -80 l-28 -29 -13 23
c-7 14 -25 29 -40 36 -17 7 -38 29 -51 55 -13 24 -37 59 -53 77 -21 24 -17 14
15 -35 25 -39 43 -72 40 -75 -3 -3 -9 0 -13 7 -9 16 -62 44 -68 38 -3 -2 -26
9 -51 25 -25 16 -52 29 -59 29 -20 0 -17 109 4 139 15 23 17 23 30 6 7 -11 13
-34 13 -52z m-389 -8 c13 -14 41 -30 62 -36 45 -12 55 -30 36 -70 l-14 -30
-41 29 c-23 17 -55 37 -72 46 -29 15 -30 17 -19 51 12 42 18 43 48 10z m139
-86 c0 -6 -4 -7 -10 -4 -5 3 -10 11 -10 16 0 6 5 7 10 4 6 -3 10 -11 10 -16z
m-135 -9 c4 -6 -7 -10 -27 -10 -25 0 -29 3 -18 10 19 13 37 13 45 0z m407 -37
c9 -8 22 -15 30 -17 7 -1 34 -14 59 -29 25 -15 60 -32 77 -38 26 -9 34 -19 47
-61 11 -38 12 -54 3 -68 -9 -14 -9 -22 3 -36 15 -18 14 -51 -3 -71 -16 -20
-62 -15 -92 8 -33 26 -33 44 -1 65 49 32 27 120 -47 190 l-42 39 39 -44 c22
-26 34 -46 27 -49 -7 -2 -12 -11 -12 -21 0 -9 -5 -22 -10 -27 -6 -6 -8 -18 -4
-28 6 -15 7 -15 21 1 13 17 14 16 7 -7 -5 -20 -4 -23 7 -13 10 10 10 18 1 38
-15 32 -15 35 -2 35 6 0 15 -12 21 -26 7 -21 6 -31 -7 -45 -10 -11 -22 -19
-28 -19 -7 0 -12 -12 -11 -27 0 -23 -4 -28 -25 -29 -14 0 -35 -6 -47 -12 -12
-7 -33 -12 -48 -12 -15 0 -24 -4 -20 -10 10 -16 -61 -12 -75 5 -7 8 -9 15 -4
15 5 0 -2 7 -15 16 -38 27 -71 134 -40 134 5 0 7 -4 4 -10 -8 -14 13 -50 30
-50 7 0 15 -9 17 -20 4 -27 22 -27 26 1 4 26 -11 43 -38 44 -18 0 -29 14 -12
16 23 3 42 23 42 44 0 14 5 25 10 25 6 0 10 -4 10 -10 0 -5 4 -10 10 -10 5 0
7 7 4 15 -4 8 -18 15 -33 15 -25 0 -27 3 -23 35 3 29 12 40 45 59 42 26 58 24
99 -11z m-227 16 c10 -15 -3 -59 -18 -59 -9 0 -12 11 -9 35 4 35 15 45 27 24z
m39 -14 c7 -20 -12 -71 -23 -59 -10 11 -2 74 9 74 4 0 10 -7 14 -15z m28 -60
c-6 -14 -16 -25 -22 -25 -13 0 -13 13 2 45 8 17 15 22 21 16 7 -7 7 -19 -1
-36z m-38 -59 c-8 -21 -44 -26 -79 -11 -38 15 -51 33 -37 47 7 7 19 4 38 -11
34 -27 48 -27 34 -1 -6 11 -8 26 -4 32 10 15 55 -38 48 -56z m-117 3 c30 -30
31 -33 18 -59 -13 -25 -12 -30 10 -62 13 -19 37 -41 54 -47 50 -21 56 -59 20
-136 -17 -35 -37 -101 -45 -147 -8 -46 -16 -89 -19 -95 -2 -7 -1 -13 4 -13 4
0 15 44 25 99 10 57 29 124 47 162 25 52 28 68 20 87 -14 30 -14 32 4 32 8 0
25 -10 36 -21 19 -19 29 -21 80 -15 63 6 74 -2 37 -28 -30 -21 -14 -20 22 1
28 16 28 16 95 -37 59 -47 135 -139 135 -164 0 -17 -73 -107 -115 -142 -37
-30 -47 -34 -64 -24 -34 18 -45 48 -27 73 49 68 49 67 36 82 -22 27 -41 16
-65 -40 l-25 -55 -54 0 -55 0 -4 38 c-4 32 -4 31 -3 -8 l1 -45 58 3 c31 2 57
0 57 -3 0 -4 -11 -21 -25 -37 -16 -18 -23 -37 -20 -48 5 -15 -3 -19 -60 -25
-36 -3 -95 -3 -131 0 l-66 8 6 46 c3 25 14 52 23 58 9 7 11 13 5 13 -9 0 -12
30 -12 103 0 101 0 102 -36 152 -44 61 -79 130 -88 170 -8 38 46 155 72 155 9
0 31 -14 49 -31z m180 -13 c-8 -20 -36 -21 -43 -1 -4 8 0 22 7 31 11 13 14 13
27 0 8 -8 12 -22 9 -30z m-87 -67 c0 -17 5 -39 10 -50 16 -29 -7 -24 -40 10
-35 34 -32 71 6 71 20 0 24 -5 24 -31z m97 -31 c-3 -7 -5 -2 -5 12 0 14 2 19
5 13 2 -7 2 -19 0 -25z m187 -520 c4 -3 1 -20 -7 -37 -9 -17 -11 -28 -5 -25 6
4 9 1 6 -7 -2 -8 -17 -15 -32 -17 -20 -3 -34 5 -56 28 -37 40 -37 56 -3 92
l27 28 30 -27 c17 -15 35 -31 40 -35z m-99 -76 c14 -12 30 -36 35 -54 11 -40
46 -243 54 -315 6 -51 6 -52 -21 -56 -28 -4 -28 -4 3 -6 33 -1 70 -33 59 -50
-3 -6 -22 -11 -41 -11 -39 0 -83 35 -65 53 7 7 6 13 -3 21 -7 6 -39 72 -71
146 -60 140 -103 230 -109 230 -2 0 -4 -17 -3 -37 0 -21 -14 -92 -31 -158 -17
-66 -33 -132 -36 -147 -6 -26 -10 -28 -56 -28 l-50 0 -1 68 c-3 136 9 291 26
352 4 12 28 15 144 14 125 -1 142 -4 166 -22z m-235 -439 c0 -12 -127 -28
-170 -21 -24 4 -23 5 10 20 41 19 160 20 160 1z"/>
<path d="M600 1656 c0 -8 -12 -29 -27 -48 -27 -32 -28 -33 -3 -17 26 17 58 79
40 79 -5 0 -10 -6 -10 -14z"/>
<path d="M1095 1580 c-3 -5 3 -10 14 -10 12 0 21 5 21 10 0 6 -6 10 -14 10 -8
0 -18 -4 -21 -10z"/>
<path d="M1313 1535 c-8 -23 3 -95 17 -109 9 -8 11 -6 5 12 -4 13 -7 43 -7 68
-1 46 -5 54 -15 29z"/>
<path d="M693 1592 c-7 -4 -2 -14 12 -24 18 -14 24 -15 28 -5 6 16 -25 38 -40
29z"/>
<path d="M1020 1507 c0 -10 8 -17 18 -17 9 0 13 4 7 8 -5 4 -13 11 -17 16 -5
5 -8 2 -8 -7z"/>
<path d="M1003 1464 c-3 -8 -1 -20 6 -27 8 -8 11 -7 11 5 0 10 14 20 38 26
l37 10 -43 1 c-30 1 -44 -4 -49 -15z"/>
<path d="M1107 1463 c-15 -14 -6 -33 16 -32 16 1 17 3 5 6 -10 2 -15 10 -11
19 5 15 1 18 -10 7z"/>
<path d="M1150 1315 c0 -5 5 -17 10 -25 5 -8 10 -10 10 -5 0 6 -5 17 -10 25
-5 8 -10 11 -10 5z"/>
<path d="M1002 1083 c-11 -27 -23 -64 -26 -83 -3 -19 5 -3 19 35 14 39 33 76
42 83 15 10 15 12 1 12 -9 0 -24 -20 -36 -47z"/>
<path d="M962 940 c0 -14 2 -19 5 -12 2 6 2 18 0 25 -3 6 -5 1 -5 -13z"/>
</g>
</svg>
