<svg id="svg" version="1.1" xmlns="http://www.w3.org/2000/svg" xmlns:xlink="http://www.w3.org/1999/xlink" width="400" height="266.6666666666667" viewBox="0, 0, 400,266.6666666666667"><g id="svgg"><path id="path0" d="M351.067 1.605 C 328.749 4.279,318.198 34.341,332.191 55.384 C 338.102 64.273,350.295 69.418,359.200 66.780 C 361.471 66.107,361.333 66.597,361.333 59.167 C 361.333 51.554,361.649 52.214,358.418 53.073 C 348.987 55.581,340.950 46.801,340.957 34.000 C 340.965 20.866,349.322 12.769,359.804 15.742 C 360.356 15.899,360.926 15.954,361.070 15.864 C 361.377 15.675,361.433 3.489,361.129 3.052 C 360.385 1.981,354.721 1.167,351.067 1.605 M38.406 2.329 C 38.409 2.441,38.721 3.553,39.100 4.800 C 39.479 6.047,40.184 8.507,40.666 10.267 C 41.148 12.027,42.395 16.347,43.438 19.867 C 46.182 29.127,48.212 36.138,48.959 38.933 C 49.175 39.740,49.695 41.540,50.115 42.933 C 50.535 44.327,51.439 47.387,52.124 49.733 C 52.809 52.080,53.482 54.360,53.620 54.800 C 53.757 55.240,54.355 57.340,54.948 59.467 C 55.541 61.593,56.270 64.083,56.568 65.000 L 57.110 66.667 62.622 66.663 C 68.782 66.658,68.555 66.714,69.047 65.067 C 69.244 64.407,69.512 63.507,69.642 63.067 C 69.773 62.627,70.778 59.027,71.877 55.067 C 72.975 51.107,74.096 47.087,74.368 46.133 C 74.639 45.180,75.134 43.380,75.467 42.133 C 75.800 40.887,76.423 38.667,76.851 37.200 C 77.279 35.733,77.868 33.633,78.159 32.533 C 78.451 31.433,78.795 30.173,78.925 29.733 C 79.055 29.293,79.400 28.033,79.692 26.933 C 79.984 25.833,80.540 23.793,80.927 22.400 C 81.315 21.007,82.231 17.707,82.963 15.067 C 83.696 12.427,84.466 9.667,84.676 8.933 C 85.952 4.463,86.400 2.783,86.400 2.474 C 86.400 2.193,84.956 2.139,79.000 2.196 L 71.600 2.267 70.599 6.133 C 68.022 16.090,64.712 29.025,64.526 29.867 C 64.145 31.589,63.165 35.043,62.947 35.433 C 62.637 35.986,62.294 35.256,61.643 32.656 C 61.351 31.489,60.869 29.633,60.574 28.533 C 60.278 27.433,59.555 24.673,58.968 22.400 C 55.988 10.860,54.270 4.275,53.924 3.067 L 53.695 2.267 46.048 2.196 C 41.841 2.157,38.403 2.217,38.406 2.329 M92.833 3.000 C 92.682 3.477,91.946 6.567,91.199 9.867 C 90.452 13.167,89.368 17.847,88.791 20.267 C 88.214 22.687,87.335 26.467,86.837 28.667 C 86.340 30.867,85.726 33.507,85.472 34.533 C 85.219 35.560,84.909 36.820,84.783 37.333 C 84.657 37.847,84.241 39.647,83.858 41.333 C 83.476 43.020,82.822 45.840,82.405 47.600 C 81.988 49.360,81.386 51.940,81.068 53.333 C 80.750 54.727,80.142 57.314,79.718 59.084 C 78.334 64.859,78.096 66.203,78.407 66.514 C 78.722 66.828,91.995 66.761,92.308 66.444 C 92.454 66.296,93.905 59.719,94.333 57.264 C 94.506 56.275,94.764 56.236,100.533 56.324 L 105.467 56.400 105.819 57.867 C 106.012 58.673,106.561 60.953,107.037 62.933 L 107.904 66.533 115.285 66.604 L 122.667 66.675 122.667 66.071 C 122.667 65.439,122.303 63.809,120.386 55.867 C 119.749 53.227,118.692 48.847,118.037 46.133 C 117.383 43.420,116.529 39.820,116.141 38.133 C 115.752 36.447,115.153 33.927,114.809 32.533 C 114.465 31.140,113.796 28.320,113.323 26.267 C 112.849 24.213,111.707 19.413,110.785 15.600 C 109.863 11.787,108.792 7.350,108.405 5.742 C 107.450 1.771,108.283 2.133,100.121 2.133 L 93.108 2.133 92.833 3.000 M126.782 2.485 C 126.356 3.593,126.827 54.307,127.276 55.821 C 129.662 63.856,135.485 67.539,145.867 67.581 C 155.459 67.620,161.039 64.918,164.003 58.800 C 165.641 55.421,165.624 55.750,165.542 27.733 L 165.467 2.267 158.467 2.196 C 154.617 2.156,151.440 2.156,151.407 2.196 C 151.374 2.235,151.284 13.307,151.207 26.800 L 151.067 51.333 150.344 52.563 C 148.815 55.164,144.100 55.367,142.417 52.905 C 141.112 50.997,141.078 50.316,141.072 25.822 C 141.069 13.257,140.994 2.787,140.905 2.555 C 140.683 1.976,127.003 1.909,126.782 2.485 M173.600 2.600 C 173.597 18.076,173.595 66.098,173.597 66.336 C 173.599 66.602,176.397 66.657,187.133 66.602 L 200.667 66.533 200.738 59.940 L 200.809 53.346 200.145 53.179 C 199.780 53.088,196.959 53.055,193.877 53.106 C 189.390 53.181,188.245 53.129,188.136 52.845 C 188.061 52.650,187.998 41.430,187.996 27.912 C 187.994 14.394,187.920 3.063,187.832 2.733 L 187.671 2.133 180.636 2.133 C 174.113 2.133,173.600 2.167,173.600 2.600 M196.446 2.309 C 196.285 2.471,196.174 15.404,196.333 15.512 C 196.370 15.536,198.560 15.626,201.200 15.712 L 206.000 15.867 206.133 41.200 L 206.267 66.533 213.267 66.604 L 220.267 66.676 220.267 41.353 C 220.267 21.389,220.337 15.986,220.600 15.816 C 220.783 15.697,222.973 15.600,225.467 15.600 L 230.000 15.600 230.000 8.933 L 230.000 2.267 213.313 2.198 C 204.135 2.160,196.545 2.210,196.446 2.309 M255.200 8.927 L 255.200 15.721 260.067 15.794 L 264.933 15.867 265.067 41.200 L 265.200 66.533 272.199 66.604 L 279.197 66.676 279.265 41.271 L 279.333 15.867 283.996 15.733 L 288.658 15.600 288.847 14.533 C 289.079 13.224,289.121 3.563,288.899 2.733 L 288.738 2.133 271.969 2.133 L 255.200 2.133 255.200 8.927 M294.933 34.371 C 294.933 59.933,295.002 66.629,295.267 66.705 C 295.450 66.757,301.480 66.740,308.667 66.667 L 321.733 66.533 321.805 60.152 C 321.853 55.895,321.782 53.675,321.592 53.485 C 321.416 53.308,319.054 53.149,315.387 53.067 L 309.467 52.933 309.295 50.533 C 309.030 46.825,309.047 42.044,309.328 41.600 C 309.536 41.270,310.460 41.192,314.590 41.157 C 317.346 41.134,319.752 41.104,319.938 41.091 C 320.203 41.072,320.261 39.619,320.205 34.333 L 320.133 27.600 314.954 27.527 C 311.683 27.482,309.643 27.347,309.420 27.161 C 309.023 26.832,308.898 16.679,309.283 16.072 C 309.436 15.832,311.097 15.725,315.479 15.672 L 321.467 15.600 321.538 8.867 L 321.609 2.133 308.271 2.133 L 294.933 2.133 294.933 34.371 M101.105 31.972 C 101.528 34.407,101.986 37.000,102.122 37.733 C 102.973 42.317,103.204 43.872,103.082 44.191 C 102.825 44.860,96.921 44.546,96.978 43.867 C 97.104 42.354,99.400 27.829,99.626 27.118 C 99.938 26.135,100.294 27.304,101.105 31.972 M229.387 28.587 C 228.895 29.078,228.936 40.893,229.431 41.303 C 229.693 41.521,233.287 41.586,242.297 41.536 L 254.800 41.467 254.872 35.085 C 254.927 30.158,254.866 28.655,254.605 28.490 C 254.024 28.121,229.759 28.214,229.387 28.587 M194.860 78.678 C 189.911 78.990,184.389 80.054,179.472 81.645 C 169.796 84.775,160.426 90.528,153.233 97.754 L 150.599 100.400 117.100 100.548 C 87.141 100.680,83.393 100.743,81.637 101.140 C 79.597 101.602,74.662 103.056,73.733 103.469 C 73.440 103.600,72.313 104.074,71.230 104.524 C 69.502 105.240,67.577 106.208,65.333 107.487 C 63.941 108.280,62.400 109.654,62.400 110.101 C 62.400 111.695,69.708 115.663,76.678 117.854 C 82.925 119.818,81.378 119.733,110.872 119.733 C 127.420 119.733,137.549 119.830,137.850 119.991 C 138.301 120.232,138.260 120.459,137.209 123.529 C 136.591 125.334,136.020 127.108,135.939 127.472 C 135.858 127.836,135.546 129.338,135.245 130.810 C 134.943 132.281,134.573 133.811,134.422 134.210 L 134.147 134.933 78.638 134.933 C 45.226 134.933,22.745 135.032,22.164 135.182 C 21.634 135.318,20.480 135.571,19.600 135.743 C 12.859 137.063,1.067 142.649,1.067 144.523 C 1.067 146.035,8.748 149.997,16.533 152.499 C 21.454 154.081,16.753 153.961,78.061 154.059 C 130.798 154.142,134.136 154.175,134.358 154.607 C 134.488 154.860,134.676 155.607,134.776 156.267 C 135.086 158.304,136.007 161.873,136.958 164.723 C 137.458 166.220,137.867 167.565,137.867 167.712 C 137.867 167.887,128.673 168.007,111.000 168.062 C 81.547 168.154,83.738 168.042,77.517 169.766 C 71.894 171.325,63.068 175.710,62.483 177.236 C 61.756 179.130,71.319 184.149,79.200 186.009 C 80.740 186.373,82.240 186.752,82.533 186.853 C 82.827 186.953,97.975 187.102,116.197 187.184 L 149.326 187.333 152.997 190.959 C 161.869 199.725,170.663 204.916,181.867 207.998 C 182.527 208.180,183.367 208.429,183.733 208.552 C 189.064 210.343,201.736 210.987,209.287 209.852 C 223.831 207.665,236.464 201.244,246.847 190.762 L 250.362 187.214 282.714 187.205 L 315.067 187.195 318.133 186.550 C 323.401 185.443,325.213 184.816,331.453 181.938 C 333.082 181.187,336.785 178.659,337.089 178.092 C 338.089 176.224,327.974 171.126,318.800 168.875 L 315.867 168.155 288.867 168.068 C 266.279 167.995,261.867 167.921,261.867 167.617 C 261.867 167.417,262.277 165.974,262.779 164.410 C 263.280 162.847,264.019 160.045,264.421 158.184 C 264.824 156.323,265.266 154.653,265.404 154.473 C 265.601 154.216,277.748 154.129,321.428 154.068 C 382.860 153.982,377.410 154.127,383.296 152.416 C 389.876 150.503,398.400 146.045,398.400 144.517 C 398.400 142.553,387.304 137.333,379.424 135.590 L 376.453 134.933 321.059 134.933 C 277.064 134.933,265.610 134.865,265.399 134.600 C 265.252 134.417,264.804 132.707,264.403 130.800 C 264.001 128.893,263.140 125.724,262.489 123.758 C 261.557 120.947,261.378 120.136,261.652 119.962 C 261.843 119.841,273.977 119.740,288.615 119.737 C 303.800 119.735,315.711 119.628,316.349 119.488 C 316.964 119.353,318.149 119.106,318.983 118.939 C 325.388 117.658,337.333 112.034,337.333 110.301 C 337.333 109.076,330.251 104.957,325.200 103.245 C 316.766 100.386,319.163 100.535,281.726 100.534 L 249.186 100.533 247.326 98.635 C 238.384 89.506,227.215 83.153,215.067 80.283 C 214.333 80.110,213.313 79.867,212.800 79.744 C 212.287 79.621,210.847 79.376,209.600 79.201 C 208.353 79.025,206.757 78.773,206.054 78.641 C 204.601 78.368,199.513 78.384,194.860 78.678 M204.211 93.346 C 211.845 94.168,218.887 96.313,224.439 99.507 C 225.298 100.000,226.334 100.576,226.743 100.786 C 236.202 105.640,247.281 120.845,249.586 132.133 C 249.706 132.720,249.993 134.100,250.225 135.200 C 251.220 139.921,251.297 148.755,250.381 153.200 C 247.076 169.243,238.888 181.019,225.600 188.843 C 223.677 189.975,220.198 191.733,219.881 191.733 C 219.796 191.733,219.219 191.965,218.597 192.249 C 209.808 196.254,195.976 196.826,185.046 193.635 C 167.946 188.642,153.445 173.288,149.879 156.400 C 149.755 155.813,149.439 154.313,149.177 153.067 C 148.515 149.919,148.488 139.588,149.134 136.267 C 150.143 131.071,151.176 127.604,152.859 123.760 C 161.514 103.988,183.290 91.091,204.211 93.346 M194.133 113.344 C 169.319 118.178,159.537 147.993,176.790 166.209 C 197.034 187.583,232.754 172.263,231.370 142.800 C 230.481 123.869,212.623 109.742,194.133 113.344 M63.800 230.405 L 63.200 230.649 63.200 247.703 C 63.200 257.082,63.273 264.946,63.362 265.178 C 63.491 265.514,63.955 265.600,65.629 265.600 L 67.733 265.600 67.737 255.133 C 67.742 242.352,67.797 242.134,69.582 247.784 C 73.004 258.612,72.800 257.762,72.804 261.220 C 72.809 265.839,72.692 265.636,75.300 265.544 L 77.467 265.467 77.467 248.000 L 77.467 230.533 75.267 230.456 L 73.067 230.378 73.048 237.656 C 73.021 248.088,73.044 248.086,70.139 237.867 C 68.612 232.492,68.151 231.037,67.890 230.764 C 67.501 230.359,64.552 230.100,63.800 230.405 M34.667 248.000 L 34.667 265.622 36.867 265.544 L 39.067 265.467 39.067 248.000 L 39.067 230.533 36.867 230.456 L 34.667 230.378 34.667 248.000 M101.723 230.733 C 101.652 230.917,101.626 238.807,101.664 248.267 L 101.733 265.467 106.780 265.539 C 116.681 265.682,116.327 266.346,116.213 247.867 C 116.119 232.527,116.114 232.499,113.011 230.907 C 111.778 230.275,101.956 230.124,101.723 230.733 M140.188 230.568 C 139.891 230.864,139.976 259.973,140.277 261.278 C 141.012 264.465,142.539 265.428,147.062 265.557 C 155.187 265.788,155.067 266.084,155.067 245.867 L 155.067 230.533 152.867 230.456 L 150.667 230.378 150.667 244.936 C 150.667 262.268,150.841 261.333,147.614 261.333 C 146.594 261.333,146.012 261.181,145.505 260.782 L 144.804 260.231 144.736 245.382 L 144.667 230.533 142.521 230.457 C 141.341 230.415,140.291 230.465,140.188 230.568 M181.323 231.000 C 179.172 232.085,178.817 233.239,178.714 239.495 C 178.616 245.418,178.910 246.674,180.627 247.683 C 181.089 247.954,182.828 248.947,184.492 249.888 C 188.235 252.006,188.267 252.059,188.266 256.187 C 188.266 260.365,187.916 261.163,186.034 261.283 C 184.246 261.396,183.523 260.720,183.413 258.832 L 183.333 257.467 181.223 257.388 C 178.818 257.298,178.677 257.396,178.671 259.159 C 178.655 263.673,180.724 265.600,185.587 265.600 C 191.963 265.600,192.800 264.439,192.800 255.602 C 192.800 248.754,192.833 248.809,186.872 245.757 C 183.382 243.970,183.467 244.125,183.467 239.475 L 183.467 235.505 184.169 234.953 C 185.081 234.236,186.642 234.222,187.396 234.925 C 187.922 235.415,188.043 235.940,188.348 239.067 C 188.395 239.551,188.595 239.600,190.533 239.600 L 192.667 239.600 192.750 237.200 C 192.875 233.589,192.024 231.628,189.954 230.764 C 188.403 230.116,182.771 230.270,181.323 231.000 M214.779 230.759 C 214.701 230.961,214.674 231.833,214.719 232.697 L 214.800 234.267 216.667 234.342 C 219.416 234.454,219.200 233.080,219.200 250.462 L 219.200 265.622 221.400 265.544 L 223.600 265.467 223.739 250.000 C 223.815 241.493,223.905 234.503,223.939 234.467 C 223.972 234.430,224.965 234.400,226.145 234.400 L 228.290 234.400 228.212 232.467 L 228.133 230.533 221.527 230.462 C 216.108 230.403,214.895 230.457,214.779 230.759 M250.667 248.011 L 250.667 265.622 252.867 265.544 L 255.067 265.467 255.138 258.688 C 255.215 251.331,255.243 251.200,256.693 251.200 C 257.785 251.200,258.324 251.907,258.650 253.771 C 258.774 254.483,259.201 256.567,259.598 258.400 C 261.331 266.404,260.840 265.452,263.285 265.545 C 264.917 265.607,265.333 265.545,265.333 265.242 C 265.333 264.817,263.491 256.129,262.765 253.133 L 262.297 251.199 263.118 250.333 C 264.863 248.495,264.925 248.204,265.019 241.481 C 265.167 230.802,264.840 230.400,256.009 230.400 L 250.667 230.400 250.667 248.011 M288.715 230.990 C 288.502 231.864,288.483 263.692,288.694 264.744 L 288.871 265.620 291.035 265.544 L 293.200 265.467 293.200 248.000 L 293.200 230.533 291.031 230.456 C 288.963 230.383,288.856 230.408,288.715 230.990 M317.458 230.728 C 317.387 230.914,317.360 238.807,317.398 248.267 L 317.467 265.467 323.145 265.539 L 328.823 265.611 328.745 263.539 L 328.667 261.467 325.477 261.391 C 321.567 261.298,321.876 261.798,321.871 255.555 C 321.866 249.130,321.658 249.601,324.495 249.596 C 328.226 249.590,328.255 249.570,328.062 247.000 L 327.936 245.333 325.221 245.333 C 321.666 245.333,321.867 245.654,321.867 239.968 C 321.867 233.852,321.509 234.400,325.507 234.400 L 328.823 234.400 328.745 232.467 L 328.667 230.533 323.127 230.461 C 318.840 230.405,317.558 230.466,317.458 230.728 M354.267 230.820 C 351.881 232.064,351.642 232.752,351.515 238.742 C 351.346 246.714,351.243 246.493,356.525 249.484 C 361.146 252.101,360.800 251.550,360.800 256.277 C 360.800 261.102,360.612 261.486,358.349 261.268 C 356.668 261.107,356.183 260.608,356.007 258.864 L 355.867 257.467 353.733 257.467 L 351.600 257.467 351.646 259.686 C 351.737 264.134,353.398 265.600,358.344 265.600 C 364.725 265.600,365.713 264.134,365.554 254.895 L 365.467 249.806 364.236 248.703 C 363.559 248.096,361.784 246.940,360.291 246.134 C 355.887 243.755,356.149 244.134,356.045 240.000 C 355.928 235.346,356.368 234.400,358.650 234.400 C 360.117 234.400,360.651 235.172,360.800 237.509 L 360.933 239.600 363.067 239.600 L 365.200 239.600 365.264 236.800 C 365.341 233.420,364.798 232.000,363.047 231.004 C 361.694 230.235,355.634 230.108,354.267 230.820 M111.099 235.292 L 111.733 236.030 111.733 247.869 C 111.733 255.969,111.640 259.913,111.438 260.357 C 110.949 261.429,106.933 261.796,106.409 260.818 C 105.978 260.011,106.033 234.756,106.467 234.563 C 107.516 234.096,110.470 234.561,111.099 235.292 M259.652 235.044 L 260.400 235.687 260.400 240.722 C 260.400 247.187,259.770 248.182,256.255 247.272 L 255.333 247.033 255.261 241.056 C 255.222 237.768,255.248 234.926,255.320 234.739 C 255.574 234.077,258.791 234.303,259.652 235.044 " stroke="none" fill="#cab340" fill-rule="evenodd"/></g></svg>